<mxfile host="app.diagrams.net" modified="2023-12-05T17:22:46.788Z" agent="Mozilla/5.0 (Windows NT 10.0; Win64; x64) AppleWebKit/537.36 (KHTML, like Gecko) Chrome/119.0.0.0 Safari/537.36" etag="0BtkAGwR6zied-n23_on" version="22.1.5" type="onedrive">
  <diagram name="Trang-1" id="86jdo9DRy5UDuvieFvRv">
    <mxGraphModel dx="704" dy="847" grid="1" gridSize="10" guides="1" tooltips="1" connect="1" arrows="1" fold="1" page="1" pageScale="1" pageWidth="827" pageHeight="1169" math="0" shadow="0">
      <root>
        <mxCell id="0" />
        <mxCell id="1" parent="0" />
        <mxCell id="MXnQsnz5Dx9kYyl9zkXV-2" style="edgeStyle=orthogonalEdgeStyle;rounded=0;orthogonalLoop=1;jettySize=auto;html=1;" edge="1" parent="1" source="MXnQsnz5Dx9kYyl9zkXV-1" target="MXnQsnz5Dx9kYyl9zkXV-3">
          <mxGeometry relative="1" as="geometry">
            <mxPoint x="230" y="280" as="targetPoint" />
          </mxGeometry>
        </mxCell>
        <mxCell id="MXnQsnz5Dx9kYyl9zkXV-1" value="Start" style="ellipse;whiteSpace=wrap;html=1;" vertex="1" parent="1">
          <mxGeometry x="170" y="140" width="120" height="80" as="geometry" />
        </mxCell>
        <mxCell id="MXnQsnz5Dx9kYyl9zkXV-4" style="edgeStyle=orthogonalEdgeStyle;rounded=0;orthogonalLoop=1;jettySize=auto;html=1;" edge="1" parent="1" source="MXnQsnz5Dx9kYyl9zkXV-3">
          <mxGeometry relative="1" as="geometry">
            <mxPoint x="230" y="360" as="targetPoint" />
          </mxGeometry>
        </mxCell>
        <mxCell id="MXnQsnz5Dx9kYyl9zkXV-3" value="FILE *file1, *file2, *file3&lt;br&gt;temp" style="shape=parallelogram;perimeter=parallelogramPerimeter;whiteSpace=wrap;html=1;fixedSize=1;" vertex="1" parent="1">
          <mxGeometry x="145" y="260" width="170" height="60" as="geometry" />
        </mxCell>
        <mxCell id="MXnQsnz5Dx9kYyl9zkXV-8" style="edgeStyle=orthogonalEdgeStyle;rounded=0;orthogonalLoop=1;jettySize=auto;html=1;" edge="1" parent="1" source="MXnQsnz5Dx9kYyl9zkXV-5">
          <mxGeometry relative="1" as="geometry">
            <mxPoint x="230" y="600" as="targetPoint" />
          </mxGeometry>
        </mxCell>
        <mxCell id="MXnQsnz5Dx9kYyl9zkXV-9" value="False" style="edgeLabel;html=1;align=center;verticalAlign=middle;resizable=0;points=[];" vertex="1" connectable="0" parent="MXnQsnz5Dx9kYyl9zkXV-8">
          <mxGeometry x="-0.1552" relative="1" as="geometry">
            <mxPoint as="offset" />
          </mxGeometry>
        </mxCell>
        <mxCell id="MXnQsnz5Dx9kYyl9zkXV-11" style="edgeStyle=orthogonalEdgeStyle;rounded=0;orthogonalLoop=1;jettySize=auto;html=1;" edge="1" parent="1" source="MXnQsnz5Dx9kYyl9zkXV-5">
          <mxGeometry relative="1" as="geometry">
            <mxPoint x="450" y="1630" as="targetPoint" />
          </mxGeometry>
        </mxCell>
        <mxCell id="MXnQsnz5Dx9kYyl9zkXV-5" value="file1 == NULL" style="rhombus;whiteSpace=wrap;html=1;" vertex="1" parent="1">
          <mxGeometry x="180" y="470" width="100" height="80" as="geometry" />
        </mxCell>
        <mxCell id="MXnQsnz5Dx9kYyl9zkXV-7" style="edgeStyle=orthogonalEdgeStyle;rounded=0;orthogonalLoop=1;jettySize=auto;html=1;" edge="1" parent="1" source="MXnQsnz5Dx9kYyl9zkXV-6">
          <mxGeometry relative="1" as="geometry">
            <mxPoint x="230" y="470" as="targetPoint" />
          </mxGeometry>
        </mxCell>
        <mxCell id="MXnQsnz5Dx9kYyl9zkXV-6" value="file1 = fopen ( bt1 )" style="rounded=0;whiteSpace=wrap;html=1;" vertex="1" parent="1">
          <mxGeometry x="170" y="360" width="120" height="60" as="geometry" />
        </mxCell>
        <mxCell id="MXnQsnz5Dx9kYyl9zkXV-16" style="edgeStyle=orthogonalEdgeStyle;rounded=0;orthogonalLoop=1;jettySize=auto;html=1;entryX=0.5;entryY=0;entryDx=0;entryDy=0;" edge="1" parent="1" source="MXnQsnz5Dx9kYyl9zkXV-13" target="MXnQsnz5Dx9kYyl9zkXV-15">
          <mxGeometry relative="1" as="geometry" />
        </mxCell>
        <mxCell id="MXnQsnz5Dx9kYyl9zkXV-13" value="file2 = fopen ( bt3 )" style="rounded=0;whiteSpace=wrap;html=1;" vertex="1" parent="1">
          <mxGeometry x="170" y="600" width="120" height="60" as="geometry" />
        </mxCell>
        <mxCell id="MXnQsnz5Dx9kYyl9zkXV-17" style="edgeStyle=orthogonalEdgeStyle;rounded=0;orthogonalLoop=1;jettySize=auto;html=1;" edge="1" parent="1" source="MXnQsnz5Dx9kYyl9zkXV-15">
          <mxGeometry relative="1" as="geometry">
            <mxPoint x="230" y="860" as="targetPoint" />
          </mxGeometry>
        </mxCell>
        <mxCell id="MXnQsnz5Dx9kYyl9zkXV-18" value="False" style="edgeLabel;html=1;align=center;verticalAlign=middle;resizable=0;points=[];" vertex="1" connectable="0" parent="MXnQsnz5Dx9kYyl9zkXV-17">
          <mxGeometry x="0.0441" y="2" relative="1" as="geometry">
            <mxPoint as="offset" />
          </mxGeometry>
        </mxCell>
        <mxCell id="MXnQsnz5Dx9kYyl9zkXV-47" style="edgeStyle=orthogonalEdgeStyle;rounded=0;orthogonalLoop=1;jettySize=auto;html=1;" edge="1" parent="1" source="MXnQsnz5Dx9kYyl9zkXV-15">
          <mxGeometry relative="1" as="geometry">
            <mxPoint x="450" y="750" as="targetPoint" />
          </mxGeometry>
        </mxCell>
        <mxCell id="MXnQsnz5Dx9kYyl9zkXV-15" value="file2 == NULL" style="rhombus;whiteSpace=wrap;html=1;" vertex="1" parent="1">
          <mxGeometry x="180" y="710" width="100" height="80" as="geometry" />
        </mxCell>
        <mxCell id="MXnQsnz5Dx9kYyl9zkXV-20" style="edgeStyle=orthogonalEdgeStyle;rounded=0;orthogonalLoop=1;jettySize=auto;html=1;" edge="1" parent="1" source="MXnQsnz5Dx9kYyl9zkXV-19">
          <mxGeometry relative="1" as="geometry">
            <mxPoint x="230" y="970" as="targetPoint" />
          </mxGeometry>
        </mxCell>
        <mxCell id="MXnQsnz5Dx9kYyl9zkXV-19" value="file3 = fopen ( bt5 )" style="rounded=0;whiteSpace=wrap;html=1;" vertex="1" parent="1">
          <mxGeometry x="170" y="860" width="120" height="60" as="geometry" />
        </mxCell>
        <mxCell id="MXnQsnz5Dx9kYyl9zkXV-22" style="edgeStyle=orthogonalEdgeStyle;rounded=0;orthogonalLoop=1;jettySize=auto;html=1;" edge="1" parent="1" source="MXnQsnz5Dx9kYyl9zkXV-21">
          <mxGeometry relative="1" as="geometry">
            <mxPoint x="230" y="1110" as="targetPoint" />
          </mxGeometry>
        </mxCell>
        <mxCell id="MXnQsnz5Dx9kYyl9zkXV-23" value="False" style="edgeLabel;html=1;align=center;verticalAlign=middle;resizable=0;points=[];" vertex="1" connectable="0" parent="MXnQsnz5Dx9kYyl9zkXV-22">
          <mxGeometry x="0.0082" y="2" relative="1" as="geometry">
            <mxPoint y="-1" as="offset" />
          </mxGeometry>
        </mxCell>
        <mxCell id="MXnQsnz5Dx9kYyl9zkXV-24" style="edgeStyle=orthogonalEdgeStyle;rounded=0;orthogonalLoop=1;jettySize=auto;html=1;" edge="1" parent="1" source="MXnQsnz5Dx9kYyl9zkXV-21">
          <mxGeometry relative="1" as="geometry">
            <mxPoint x="450" y="1010" as="targetPoint" />
          </mxGeometry>
        </mxCell>
        <mxCell id="MXnQsnz5Dx9kYyl9zkXV-21" value="file3 == NULL" style="rhombus;whiteSpace=wrap;html=1;" vertex="1" parent="1">
          <mxGeometry x="180" y="970" width="100" height="80" as="geometry" />
        </mxCell>
        <mxCell id="MXnQsnz5Dx9kYyl9zkXV-27" style="edgeStyle=orthogonalEdgeStyle;rounded=0;orthogonalLoop=1;jettySize=auto;html=1;" edge="1" parent="1" source="MXnQsnz5Dx9kYyl9zkXV-26">
          <mxGeometry relative="1" as="geometry">
            <mxPoint x="230" y="1270" as="targetPoint" />
          </mxGeometry>
        </mxCell>
        <mxCell id="MXnQsnz5Dx9kYyl9zkXV-28" value="True" style="edgeLabel;html=1;align=center;verticalAlign=middle;resizable=0;points=[];" vertex="1" connectable="0" parent="MXnQsnz5Dx9kYyl9zkXV-27">
          <mxGeometry x="-0.0062" y="-1" relative="1" as="geometry">
            <mxPoint x="-1" y="-1" as="offset" />
          </mxGeometry>
        </mxCell>
        <mxCell id="MXnQsnz5Dx9kYyl9zkXV-49" style="edgeStyle=orthogonalEdgeStyle;rounded=0;orthogonalLoop=1;jettySize=auto;html=1;entryX=0;entryY=0.5;entryDx=0;entryDy=0;" edge="1" parent="1" source="MXnQsnz5Dx9kYyl9zkXV-26" target="MXnQsnz5Dx9kYyl9zkXV-45">
          <mxGeometry relative="1" as="geometry">
            <Array as="points">
              <mxPoint x="60" y="1150" />
              <mxPoint x="60" y="2010" />
            </Array>
          </mxGeometry>
        </mxCell>
        <mxCell id="MXnQsnz5Dx9kYyl9zkXV-26" value="temp = fgetc(file1)) != EOF" style="rhombus;whiteSpace=wrap;html=1;" vertex="1" parent="1">
          <mxGeometry x="105" y="1110" width="250" height="80" as="geometry" />
        </mxCell>
        <mxCell id="MXnQsnz5Dx9kYyl9zkXV-34" style="edgeStyle=orthogonalEdgeStyle;rounded=0;orthogonalLoop=1;jettySize=auto;html=1;" edge="1" parent="1" source="MXnQsnz5Dx9kYyl9zkXV-29" target="MXnQsnz5Dx9kYyl9zkXV-35">
          <mxGeometry relative="1" as="geometry">
            <mxPoint x="230" y="1530" as="targetPoint" />
          </mxGeometry>
        </mxCell>
        <mxCell id="MXnQsnz5Dx9kYyl9zkXV-36" value="True" style="edgeLabel;html=1;align=center;verticalAlign=middle;resizable=0;points=[];" vertex="1" connectable="0" parent="MXnQsnz5Dx9kYyl9zkXV-34">
          <mxGeometry x="-0.2889" y="-2" relative="1" as="geometry">
            <mxPoint as="offset" />
          </mxGeometry>
        </mxCell>
        <mxCell id="MXnQsnz5Dx9kYyl9zkXV-50" value="" style="edgeStyle=orthogonalEdgeStyle;rounded=0;orthogonalLoop=1;jettySize=auto;html=1;" edge="1" parent="1" source="MXnQsnz5Dx9kYyl9zkXV-29" target="MXnQsnz5Dx9kYyl9zkXV-32">
          <mxGeometry relative="1" as="geometry" />
        </mxCell>
        <mxCell id="MXnQsnz5Dx9kYyl9zkXV-51" style="edgeStyle=orthogonalEdgeStyle;rounded=0;orthogonalLoop=1;jettySize=auto;html=1;" edge="1" parent="1" source="MXnQsnz5Dx9kYyl9zkXV-29">
          <mxGeometry relative="1" as="geometry">
            <mxPoint x="60" y="1440" as="targetPoint" />
          </mxGeometry>
        </mxCell>
        <mxCell id="MXnQsnz5Dx9kYyl9zkXV-29" value="temp = fgetc(file2)) != EOF" style="rhombus;whiteSpace=wrap;html=1;" vertex="1" parent="1">
          <mxGeometry x="90" y="1400" width="280" height="80" as="geometry" />
        </mxCell>
        <mxCell id="MXnQsnz5Dx9kYyl9zkXV-33" style="edgeStyle=orthogonalEdgeStyle;rounded=0;orthogonalLoop=1;jettySize=auto;html=1;" edge="1" parent="1" source="MXnQsnz5Dx9kYyl9zkXV-32">
          <mxGeometry relative="1" as="geometry">
            <mxPoint x="230" y="1400" as="targetPoint" />
          </mxGeometry>
        </mxCell>
        <mxCell id="MXnQsnz5Dx9kYyl9zkXV-32" value="sao chep noi dung file1 sang file3" style="rounded=0;whiteSpace=wrap;html=1;" vertex="1" parent="1">
          <mxGeometry x="170" y="1270" width="120" height="60" as="geometry" />
        </mxCell>
        <mxCell id="MXnQsnz5Dx9kYyl9zkXV-37" style="edgeStyle=orthogonalEdgeStyle;rounded=0;orthogonalLoop=1;jettySize=auto;html=1;" edge="1" parent="1" source="MXnQsnz5Dx9kYyl9zkXV-35" target="MXnQsnz5Dx9kYyl9zkXV-38">
          <mxGeometry relative="1" as="geometry">
            <mxPoint x="230" y="1660" as="targetPoint" />
          </mxGeometry>
        </mxCell>
        <mxCell id="MXnQsnz5Dx9kYyl9zkXV-35" value="sao chep noi dung file2 sang file 3" style="rounded=0;whiteSpace=wrap;html=1;" vertex="1" parent="1">
          <mxGeometry x="160" y="1540" width="140" height="60" as="geometry" />
        </mxCell>
        <mxCell id="MXnQsnz5Dx9kYyl9zkXV-40" style="edgeStyle=orthogonalEdgeStyle;rounded=0;orthogonalLoop=1;jettySize=auto;html=1;" edge="1" parent="1" source="MXnQsnz5Dx9kYyl9zkXV-38" target="MXnQsnz5Dx9kYyl9zkXV-41">
          <mxGeometry relative="1" as="geometry">
            <mxPoint x="230" y="1750" as="targetPoint" />
          </mxGeometry>
        </mxCell>
        <mxCell id="MXnQsnz5Dx9kYyl9zkXV-38" value="fclose(file1);&#xa;    fclose(file2);&#xa;    fclose(file3);" style="rounded=0;whiteSpace=wrap;html=1;" vertex="1" parent="1">
          <mxGeometry x="170" y="1640" width="120" height="60" as="geometry" />
        </mxCell>
        <mxCell id="MXnQsnz5Dx9kYyl9zkXV-42" value="i" style="edgeStyle=orthogonalEdgeStyle;rounded=0;orthogonalLoop=1;jettySize=auto;html=1;" edge="1" parent="1" source="MXnQsnz5Dx9kYyl9zkXV-41">
          <mxGeometry relative="1" as="geometry">
            <mxPoint x="230" y="1870" as="targetPoint" />
          </mxGeometry>
        </mxCell>
        <mxCell id="MXnQsnz5Dx9kYyl9zkXV-52" style="edgeStyle=orthogonalEdgeStyle;rounded=0;orthogonalLoop=1;jettySize=auto;html=1;" edge="1" parent="1" source="MXnQsnz5Dx9kYyl9zkXV-41">
          <mxGeometry relative="1" as="geometry">
            <mxPoint x="60" y="1780" as="targetPoint" />
          </mxGeometry>
        </mxCell>
        <mxCell id="MXnQsnz5Dx9kYyl9zkXV-41" value="temp = fgetc(file3)) != EOF" style="rhombus;whiteSpace=wrap;html=1;" vertex="1" parent="1">
          <mxGeometry x="132.5" y="1740" width="195" height="80" as="geometry" />
        </mxCell>
        <mxCell id="MXnQsnz5Dx9kYyl9zkXV-44" style="edgeStyle=orthogonalEdgeStyle;rounded=0;orthogonalLoop=1;jettySize=auto;html=1;" edge="1" parent="1" source="MXnQsnz5Dx9kYyl9zkXV-43" target="MXnQsnz5Dx9kYyl9zkXV-45">
          <mxGeometry relative="1" as="geometry">
            <mxPoint x="230" y="1980" as="targetPoint" />
          </mxGeometry>
        </mxCell>
        <mxCell id="MXnQsnz5Dx9kYyl9zkXV-43" value="in ra file3 ( bt5 )" style="shape=parallelogram;perimeter=parallelogramPerimeter;whiteSpace=wrap;html=1;fixedSize=1;" vertex="1" parent="1">
          <mxGeometry x="155" y="1870" width="150" height="60" as="geometry" />
        </mxCell>
        <mxCell id="MXnQsnz5Dx9kYyl9zkXV-45" value="End" style="ellipse;whiteSpace=wrap;html=1;" vertex="1" parent="1">
          <mxGeometry x="170" y="1970" width="120" height="80" as="geometry" />
        </mxCell>
        <mxCell id="MXnQsnz5Dx9kYyl9zkXV-48" style="edgeStyle=orthogonalEdgeStyle;rounded=0;orthogonalLoop=1;jettySize=auto;html=1;entryX=1;entryY=0.5;entryDx=0;entryDy=0;" edge="1" parent="1" source="MXnQsnz5Dx9kYyl9zkXV-46" target="MXnQsnz5Dx9kYyl9zkXV-45">
          <mxGeometry relative="1" as="geometry">
            <Array as="points">
              <mxPoint x="450" y="2010" />
            </Array>
          </mxGeometry>
        </mxCell>
        <mxCell id="MXnQsnz5Dx9kYyl9zkXV-46" value="Khong mo duoc file" style="shape=parallelogram;perimeter=parallelogramPerimeter;whiteSpace=wrap;html=1;fixedSize=1;" vertex="1" parent="1">
          <mxGeometry x="370" y="1630" width="170" height="60" as="geometry" />
        </mxCell>
      </root>
    </mxGraphModel>
  </diagram>
</mxfile>
